<?xml version="1.0" encoding="UTF-8" standalone="no"?>
<svg
   width="16"
   height="16"
   viewBox="0 0 16 16"
   version="1.1"
   id="svg8"
   sodipodi:docname="factchecking.svg"
   inkscape:version="1.1.1 (3bf5ae0d25, 2021-09-20)"
   xmlns:inkscape="http://www.inkscape.org/namespaces/inkscape"
   xmlns:sodipodi="http://sodipodi.sourceforge.net/DTD/sodipodi-0.dtd"
   xmlns="http://www.w3.org/2000/svg"
   xmlns:svg="http://www.w3.org/2000/svg">
  <defs
     id="defs12" />
  <sodipodi:namedview
     id="namedview10"
     pagecolor="#ffffff"
     bordercolor="#666666"
     borderopacity="1.0"
     inkscape:pageshadow="2"
     inkscape:pageopacity="0.0"
     inkscape:pagecheckerboard="0"
     showgrid="false"
     inkscape:zoom="13.625"
     inkscape:cx="1.1376147"
     inkscape:cy="11.045872"
     inkscape:window-width="1846"
     inkscape:window-height="1057"
     inkscape:window-x="66"
     inkscape:window-y="-8"
     inkscape:window-maximized="1"
     inkscape:current-layer="svg8" />
  <path
     class="st0"
     d="M 13.444444,1 H 2.5555555 C 2.1666667,1 1.7777778,1.1555555 1.4666667,1.4666667 1.1555556,1.7777778 1,2.1666667 1,2.5555555 V 13.444444 c 0,0.388889 0.1555556,0.777778 0.4666667,1.088889 C 1.7777778,14.844444 2.1666667,15 2.5555555,15 H 13.444444 c 0.388889,0 0.777778,-0.155556 1.088889,-0.466667 C 14.844444,14.222222 15,13.833333 15,13.444444 V 2.5555555 C 15,2.1666667 14.844444,1.7777778 14.533333,1.4666667 14.222222,1.1555556 13.833333,1 13.444444,1 Z m 0,12.444444 H 2.5555555 V 2.5555555 H 13.444444 Z"
     fill="#8eef97"
     id="path2"
     style="stroke-width:0.777778" />
  <path
     class="st1"
     fill-rule="evenodd"
     clip-rule="evenodd"
     d="m 13.444444,2.5555555 h -2.333333 c -4.7444445,0 -8.5555555,3.811111 -8.5555555,8.5555555 v 2.333333 H 13.444444 Z M 11.111111,1 C 5.5111109,1 1,5.5111109 1,11.111111 v 2.333333 C 1,14.3 1.7,15 2.5555555,15 H 13.444444 C 14.3,15 15,14.3 15,13.444444 V 2.5555555 C 15,1.7 14.3,1 13.444444,1 Z"
     fill="#8eef97"
     id="path4"
     style="stroke-width:0.777778" />
  <path
     class="st0"
     d="m 9.8666666,11.811111 c 0.1555554,0.155555 0.3111114,0.233333 0.4666664,0.311111 0.311111,0.155555 0.7,0.155555 1.088889,0 0.155556,-0.07777 0.311111,-0.155556 0.466667,-0.311111 0.233333,-0.233333 0.388888,-0.622223 0.388888,-1.011111 0,-0.155556 0,-0.388889 -0.07777,-0.544445 C 12.122222,10.1 12.044444,9.9444443 11.888889,9.7888888 L 5.9777777,5.8222221 Z"
     fill="#8eef97"
     id="path6"
     style="stroke-width:0.777778" />
</svg>
